<mxfile host="Electron" modified="2023-06-20T18:22:56.294Z" agent="Mozilla/5.0 (Macintosh; Intel Mac OS X 10_15_7) AppleWebKit/537.36 (KHTML, like Gecko) draw.io/21.5.0 Chrome/112.0.5615.204 Electron/24.5.1 Safari/537.36" etag="lO_MTZlpBjxSYH9Pzbo_" version="21.5.0" type="device">
  <diagram name="Seite-1" id="xVj5EhTxrT_KSyKY-WEa">
    <mxGraphModel dx="3243" dy="1214" grid="1" gridSize="10" guides="1" tooltips="1" connect="1" arrows="1" fold="1" page="1" pageScale="1" pageWidth="1169" pageHeight="827" math="0" shadow="0">
      <root>
        <mxCell id="0" />
        <mxCell id="1" parent="0" />
        <mxCell id="NZGhRMDsqNhkol5odYiz-6" style="edgeStyle=orthogonalEdgeStyle;rounded=0;orthogonalLoop=1;jettySize=auto;html=1;entryX=0;entryY=0.5;entryDx=0;entryDy=0;" parent="1" source="NZGhRMDsqNhkol5odYiz-1" target="NZGhRMDsqNhkol5odYiz-2" edge="1">
          <mxGeometry relative="1" as="geometry" />
        </mxCell>
        <mxCell id="NZGhRMDsqNhkol5odYiz-1" value="Template" style="html=1;verticalLabelPosition=bottom;align=center;labelBackgroundColor=#ffffff;verticalAlign=top;strokeWidth=2;strokeColor=#0080F0;shadow=0;dashed=0;shape=mxgraph.ios7.icons.document;" parent="1" vertex="1">
          <mxGeometry x="-1110" y="170" width="50" height="60" as="geometry" />
        </mxCell>
        <mxCell id="q9Hf9g-AvQUo-Aw0r0wj-2" style="edgeStyle=orthogonalEdgeStyle;rounded=0;orthogonalLoop=1;jettySize=auto;html=1;" parent="1" source="NZGhRMDsqNhkol5odYiz-2" target="q9Hf9g-AvQUo-Aw0r0wj-1" edge="1">
          <mxGeometry relative="1" as="geometry" />
        </mxCell>
        <mxCell id="NZGhRMDsqNhkol5odYiz-2" value="Report APP" style="rounded=1;whiteSpace=wrap;html=1;" parent="1" vertex="1">
          <mxGeometry x="-980" y="170" width="120" height="60" as="geometry" />
        </mxCell>
        <mxCell id="NZGhRMDsqNhkol5odYiz-8" style="edgeStyle=orthogonalEdgeStyle;rounded=0;orthogonalLoop=1;jettySize=auto;html=1;" parent="1" source="NZGhRMDsqNhkol5odYiz-3" target="NZGhRMDsqNhkol5odYiz-5" edge="1">
          <mxGeometry relative="1" as="geometry" />
        </mxCell>
        <mxCell id="NZGhRMDsqNhkol5odYiz-3" value="API V2" style="rounded=1;whiteSpace=wrap;html=1;" parent="1" vertex="1">
          <mxGeometry x="-380" y="170" width="120" height="60" as="geometry" />
        </mxCell>
        <mxCell id="NZGhRMDsqNhkol5odYiz-5" value="eliona DB" style="strokeWidth=2;html=1;shape=mxgraph.flowchart.database;whiteSpace=wrap;" parent="1" vertex="1">
          <mxGeometry x="-180" y="170" width="60" height="60" as="geometry" />
        </mxCell>
        <mxCell id="NZGhRMDsqNhkol5odYiz-9" value="✅" style="text;html=1;strokeColor=none;fillColor=none;align=center;verticalAlign=middle;whiteSpace=wrap;rounded=0;" parent="1" vertex="1">
          <mxGeometry x="-1120" y="140" width="60" height="30" as="geometry" />
        </mxCell>
        <mxCell id="NZGhRMDsqNhkol5odYiz-10" value="✅" style="text;html=1;strokeColor=none;fillColor=none;align=center;verticalAlign=middle;whiteSpace=wrap;rounded=0;" parent="1" vertex="1">
          <mxGeometry x="-350" y="140" width="60" height="30" as="geometry" />
        </mxCell>
        <mxCell id="NZGhRMDsqNhkol5odYiz-11" value="✅" style="text;html=1;strokeColor=none;fillColor=none;align=center;verticalAlign=middle;whiteSpace=wrap;rounded=0;" parent="1" vertex="1">
          <mxGeometry x="-180" y="140" width="60" height="30" as="geometry" />
        </mxCell>
        <mxCell id="NZGhRMDsqNhkol5odYiz-12" value="Excel&lt;br&gt;" style="sketch=0;pointerEvents=1;shadow=0;dashed=0;html=1;strokeColor=none;fillColor=#505050;labelPosition=center;verticalLabelPosition=bottom;verticalAlign=top;outlineConnect=0;align=center;shape=mxgraph.office.concepts.app_for_office;" parent="1" vertex="1">
          <mxGeometry x="-1116.5" y="40" width="53" height="40" as="geometry" />
        </mxCell>
        <mxCell id="NZGhRMDsqNhkol5odYiz-13" value="VS Code" style="sketch=0;pointerEvents=1;shadow=0;dashed=0;html=1;strokeColor=none;fillColor=#505050;labelPosition=center;verticalLabelPosition=bottom;verticalAlign=top;outlineConnect=0;align=center;shape=mxgraph.office.concepts.app_for_office;" parent="1" vertex="1">
          <mxGeometry x="-946.5" y="40" width="53" height="40" as="geometry" />
        </mxCell>
        <mxCell id="NZGhRMDsqNhkol5odYiz-14" value="Postman" style="sketch=0;pointerEvents=1;shadow=0;dashed=0;html=1;strokeColor=none;fillColor=#505050;labelPosition=center;verticalLabelPosition=bottom;verticalAlign=top;outlineConnect=0;align=center;shape=mxgraph.office.concepts.app_for_office;" parent="1" vertex="1">
          <mxGeometry x="-346.5" y="40" width="53" height="40" as="geometry" />
        </mxCell>
        <mxCell id="NZGhRMDsqNhkol5odYiz-15" value="PSQL" style="sketch=0;pointerEvents=1;shadow=0;dashed=0;html=1;strokeColor=none;fillColor=#505050;labelPosition=center;verticalLabelPosition=bottom;verticalAlign=top;outlineConnect=0;align=center;shape=mxgraph.office.concepts.app_for_office;" parent="1" vertex="1">
          <mxGeometry x="-176.5" y="40" width="53" height="40" as="geometry" />
        </mxCell>
        <mxCell id="NZGhRMDsqNhkol5odYiz-17" style="edgeStyle=orthogonalEdgeStyle;rounded=0;orthogonalLoop=1;jettySize=auto;html=1;entryX=0.5;entryY=1;entryDx=0;entryDy=0;" parent="1" source="NZGhRMDsqNhkol5odYiz-16" target="NZGhRMDsqNhkol5odYiz-2" edge="1">
          <mxGeometry relative="1" as="geometry" />
        </mxCell>
        <mxCell id="NZGhRMDsqNhkol5odYiz-16" value="Config" style="html=1;verticalLabelPosition=bottom;align=center;labelBackgroundColor=#ffffff;verticalAlign=top;strokeWidth=2;strokeColor=#0080F0;shadow=0;dashed=0;shape=mxgraph.ios7.icons.document;" parent="1" vertex="1">
          <mxGeometry x="-945" y="330" width="50" height="60" as="geometry" />
        </mxCell>
        <mxCell id="q9Hf9g-AvQUo-Aw0r0wj-6" style="edgeStyle=orthogonalEdgeStyle;rounded=0;orthogonalLoop=1;jettySize=auto;html=1;" parent="1" source="q9Hf9g-AvQUo-Aw0r0wj-1" target="q9Hf9g-AvQUo-Aw0r0wj-5" edge="1">
          <mxGeometry relative="1" as="geometry">
            <mxPoint x="-420" y="200" as="targetPoint" />
          </mxGeometry>
        </mxCell>
        <mxCell id="q9Hf9g-AvQUo-Aw0r0wj-1" value="Leicom API Handler" style="rounded=1;whiteSpace=wrap;html=1;" parent="1" vertex="1">
          <mxGeometry x="-780" y="170" width="120" height="60" as="geometry" />
        </mxCell>
        <mxCell id="q9Hf9g-AvQUo-Aw0r0wj-4" value="VS Code" style="sketch=0;pointerEvents=1;shadow=0;dashed=0;html=1;strokeColor=none;fillColor=#505050;labelPosition=center;verticalLabelPosition=bottom;verticalAlign=top;outlineConnect=0;align=center;shape=mxgraph.office.concepts.app_for_office;" parent="1" vertex="1">
          <mxGeometry x="-746.5" y="40" width="53" height="40" as="geometry" />
        </mxCell>
        <mxCell id="q9Hf9g-AvQUo-Aw0r0wj-7" style="edgeStyle=orthogonalEdgeStyle;rounded=0;orthogonalLoop=1;jettySize=auto;html=1;" parent="1" source="q9Hf9g-AvQUo-Aw0r0wj-5" target="NZGhRMDsqNhkol5odYiz-3" edge="1">
          <mxGeometry relative="1" as="geometry" />
        </mxCell>
        <mxCell id="q9Hf9g-AvQUo-Aw0r0wj-5" value="python API Modul" style="rounded=1;whiteSpace=wrap;html=1;" parent="1" vertex="1">
          <mxGeometry x="-580" y="170" width="120" height="60" as="geometry" />
        </mxCell>
        <mxCell id="q9Hf9g-AvQUo-Aw0r0wj-8" value="VS Code" style="sketch=0;pointerEvents=1;shadow=0;dashed=0;html=1;strokeColor=none;fillColor=#505050;labelPosition=center;verticalLabelPosition=bottom;verticalAlign=top;outlineConnect=0;align=center;shape=mxgraph.office.concepts.app_for_office;" parent="1" vertex="1">
          <mxGeometry x="-546.5" y="40" width="53" height="40" as="geometry" />
        </mxCell>
        <mxCell id="q9Hf9g-AvQUo-Aw0r0wj-9" value="✅" style="text;html=1;strokeColor=none;fillColor=none;align=center;verticalAlign=middle;whiteSpace=wrap;rounded=0;" parent="1" vertex="1">
          <mxGeometry x="-950" y="420" width="60" height="30" as="geometry" />
        </mxCell>
        <mxCell id="q9Hf9g-AvQUo-Aw0r0wj-10" value="✅" style="text;html=1;strokeColor=none;fillColor=none;align=center;verticalAlign=middle;whiteSpace=wrap;rounded=0;" parent="1" vertex="1">
          <mxGeometry x="-950" y="140" width="60" height="30" as="geometry" />
        </mxCell>
        <mxCell id="q9Hf9g-AvQUo-Aw0r0wj-12" style="edgeStyle=orthogonalEdgeStyle;rounded=0;orthogonalLoop=1;jettySize=auto;html=1;entryX=0.5;entryY=1;entryDx=0;entryDy=0;" parent="1" source="q9Hf9g-AvQUo-Aw0r0wj-11" target="q9Hf9g-AvQUo-Aw0r0wj-1" edge="1">
          <mxGeometry relative="1" as="geometry" />
        </mxCell>
        <mxCell id="q9Hf9g-AvQUo-Aw0r0wj-11" value="Test.py" style="rounded=1;whiteSpace=wrap;html=1;" parent="1" vertex="1">
          <mxGeometry x="-980" y="530" width="120" height="60" as="geometry" />
        </mxCell>
        <mxCell id="q9Hf9g-AvQUo-Aw0r0wj-13" value="✅" style="text;html=1;strokeColor=none;fillColor=none;align=center;verticalAlign=middle;whiteSpace=wrap;rounded=0;" parent="1" vertex="1">
          <mxGeometry x="-950" y="500" width="60" height="30" as="geometry" />
        </mxCell>
        <mxCell id="q9Hf9g-AvQUo-Aw0r0wj-14" value="✅" style="text;html=1;strokeColor=none;fillColor=none;align=center;verticalAlign=middle;whiteSpace=wrap;rounded=0;" parent="1" vertex="1">
          <mxGeometry x="-753.5" y="140" width="60" height="30" as="geometry" />
        </mxCell>
        <mxCell id="q9Hf9g-AvQUo-Aw0r0wj-15" value="✅" style="text;html=1;strokeColor=none;fillColor=none;align=center;verticalAlign=middle;whiteSpace=wrap;rounded=0;" parent="1" vertex="1">
          <mxGeometry x="-550" y="140" width="60" height="30" as="geometry" />
        </mxCell>
      </root>
    </mxGraphModel>
  </diagram>
</mxfile>
